<mxfile host="app.diagrams.net" modified="2023-08-05T10:01:13.114Z" agent="Mozilla/5.0 (X11; Linux x86_64; rv:109.0) Gecko/20100101 Firefox/115.0" etag="56MfKUUaE1fH8vQk_dPp" version="21.6.6" type="github">
  <diagram name="Page-1" id="fzNRnP826HokWF9cmXyg">
    <mxGraphModel dx="474" dy="733" grid="1" gridSize="10" guides="1" tooltips="1" connect="1" arrows="1" fold="1" page="1" pageScale="1" pageWidth="850" pageHeight="1100" math="0" shadow="0">
      <root>
        <mxCell id="0" />
        <mxCell id="1" parent="0" />
        <mxCell id="D249ZISTXlAxNiE2_2An-1" value="" style="group" vertex="1" connectable="0" parent="1">
          <mxGeometry x="80" y="440" width="360" height="280" as="geometry" />
        </mxCell>
        <mxCell id="D249ZISTXlAxNiE2_2An-2" value="" style="rounded=0;whiteSpace=wrap;html=1;container=0;" vertex="1" parent="D249ZISTXlAxNiE2_2An-1">
          <mxGeometry x="240" y="40" width="40" height="40" as="geometry" />
        </mxCell>
        <mxCell id="D249ZISTXlAxNiE2_2An-3" value="" style="rounded=0;whiteSpace=wrap;html=1;container=0;fillColor=#d5e8d4;strokeColor=#82b366;" vertex="1" parent="D249ZISTXlAxNiE2_2An-1">
          <mxGeometry x="240" y="80" width="40" height="40" as="geometry" />
        </mxCell>
        <mxCell id="D249ZISTXlAxNiE2_2An-4" value="" style="rounded=0;whiteSpace=wrap;html=1;container=0;fillColor=#d5e8d4;strokeColor=#82b366;" vertex="1" parent="D249ZISTXlAxNiE2_2An-1">
          <mxGeometry x="240" y="120" width="40" height="40" as="geometry" />
        </mxCell>
        <mxCell id="D249ZISTXlAxNiE2_2An-5" value="" style="rounded=0;whiteSpace=wrap;html=1;container=0;" vertex="1" parent="D249ZISTXlAxNiE2_2An-1">
          <mxGeometry x="240" y="160" width="40" height="40" as="geometry" />
        </mxCell>
        <mxCell id="D249ZISTXlAxNiE2_2An-6" value="" style="rounded=0;whiteSpace=wrap;html=1;container=0;" vertex="1" parent="D249ZISTXlAxNiE2_2An-1">
          <mxGeometry x="240" y="200" width="40" height="40" as="geometry" />
        </mxCell>
        <mxCell id="D249ZISTXlAxNiE2_2An-7" value="" style="rounded=0;whiteSpace=wrap;html=1;container=0;" vertex="1" parent="D249ZISTXlAxNiE2_2An-1">
          <mxGeometry x="280" y="40" width="40" height="40" as="geometry" />
        </mxCell>
        <mxCell id="D249ZISTXlAxNiE2_2An-8" value="" style="rounded=0;whiteSpace=wrap;html=1;container=0;" vertex="1" parent="D249ZISTXlAxNiE2_2An-1">
          <mxGeometry x="280" y="80" width="40" height="40" as="geometry" />
        </mxCell>
        <mxCell id="D249ZISTXlAxNiE2_2An-9" value="" style="rounded=0;whiteSpace=wrap;html=1;container=0;" vertex="1" parent="D249ZISTXlAxNiE2_2An-1">
          <mxGeometry x="280" y="120" width="40" height="40" as="geometry" />
        </mxCell>
        <mxCell id="D249ZISTXlAxNiE2_2An-10" value="" style="rounded=0;whiteSpace=wrap;html=1;container=0;" vertex="1" parent="D249ZISTXlAxNiE2_2An-1">
          <mxGeometry x="280" y="160" width="40" height="40" as="geometry" />
        </mxCell>
        <mxCell id="D249ZISTXlAxNiE2_2An-11" value="" style="rounded=0;whiteSpace=wrap;html=1;container=0;" vertex="1" parent="D249ZISTXlAxNiE2_2An-1">
          <mxGeometry x="280" y="200" width="40" height="40" as="geometry" />
        </mxCell>
        <mxCell id="D249ZISTXlAxNiE2_2An-12" value="" style="rounded=0;whiteSpace=wrap;html=1;container=0;" vertex="1" parent="D249ZISTXlAxNiE2_2An-1">
          <mxGeometry x="160" y="40" width="40" height="40" as="geometry" />
        </mxCell>
        <mxCell id="D249ZISTXlAxNiE2_2An-13" value="" style="rounded=0;whiteSpace=wrap;html=1;container=0;" vertex="1" parent="D249ZISTXlAxNiE2_2An-1">
          <mxGeometry x="160" y="80" width="40" height="40" as="geometry" />
        </mxCell>
        <mxCell id="D249ZISTXlAxNiE2_2An-14" value="" style="rounded=0;whiteSpace=wrap;html=1;container=0;" vertex="1" parent="D249ZISTXlAxNiE2_2An-1">
          <mxGeometry x="160" y="120" width="40" height="40" as="geometry" />
        </mxCell>
        <mxCell id="D249ZISTXlAxNiE2_2An-15" value="" style="rounded=0;whiteSpace=wrap;html=1;container=0;" vertex="1" parent="D249ZISTXlAxNiE2_2An-1">
          <mxGeometry x="160" y="160" width="40" height="40" as="geometry" />
        </mxCell>
        <mxCell id="D249ZISTXlAxNiE2_2An-16" value="" style="rounded=0;whiteSpace=wrap;html=1;container=0;" vertex="1" parent="D249ZISTXlAxNiE2_2An-1">
          <mxGeometry x="160" y="200" width="40" height="40" as="geometry" />
        </mxCell>
        <mxCell id="D249ZISTXlAxNiE2_2An-17" value="" style="rounded=0;whiteSpace=wrap;html=1;container=0;" vertex="1" parent="D249ZISTXlAxNiE2_2An-1">
          <mxGeometry x="200" y="40" width="40" height="40" as="geometry" />
        </mxCell>
        <mxCell id="D249ZISTXlAxNiE2_2An-18" value="" style="rounded=0;whiteSpace=wrap;html=1;container=0;fillColor=#d5e8d4;strokeColor=#82b366;" vertex="1" parent="D249ZISTXlAxNiE2_2An-1">
          <mxGeometry x="200" y="80" width="40" height="40" as="geometry" />
        </mxCell>
        <mxCell id="D249ZISTXlAxNiE2_2An-19" value="" style="rounded=0;whiteSpace=wrap;html=1;container=0;fillColor=#d5e8d4;strokeColor=#82b366;" vertex="1" parent="D249ZISTXlAxNiE2_2An-1">
          <mxGeometry x="200" y="120" width="40" height="40" as="geometry" />
        </mxCell>
        <mxCell id="D249ZISTXlAxNiE2_2An-20" value="" style="rounded=0;whiteSpace=wrap;html=1;container=0;" vertex="1" parent="D249ZISTXlAxNiE2_2An-1">
          <mxGeometry x="200" y="160" width="40" height="40" as="geometry" />
        </mxCell>
        <mxCell id="D249ZISTXlAxNiE2_2An-21" value="" style="rounded=0;whiteSpace=wrap;html=1;container=0;" vertex="1" parent="D249ZISTXlAxNiE2_2An-1">
          <mxGeometry x="200" y="200" width="40" height="40" as="geometry" />
        </mxCell>
        <mxCell id="D249ZISTXlAxNiE2_2An-22" value="" style="rounded=0;whiteSpace=wrap;html=1;container=0;" vertex="1" parent="D249ZISTXlAxNiE2_2An-1">
          <mxGeometry x="80" y="40" width="40" height="40" as="geometry" />
        </mxCell>
        <mxCell id="D249ZISTXlAxNiE2_2An-23" value="" style="rounded=0;whiteSpace=wrap;html=1;container=0;" vertex="1" parent="D249ZISTXlAxNiE2_2An-1">
          <mxGeometry x="80" y="80" width="40" height="40" as="geometry" />
        </mxCell>
        <mxCell id="D249ZISTXlAxNiE2_2An-24" value="" style="rounded=0;whiteSpace=wrap;html=1;container=0;" vertex="1" parent="D249ZISTXlAxNiE2_2An-1">
          <mxGeometry x="80" y="120" width="40" height="40" as="geometry" />
        </mxCell>
        <mxCell id="D249ZISTXlAxNiE2_2An-25" value="" style="rounded=0;whiteSpace=wrap;html=1;container=0;" vertex="1" parent="D249ZISTXlAxNiE2_2An-1">
          <mxGeometry x="80" y="160" width="40" height="40" as="geometry" />
        </mxCell>
        <mxCell id="D249ZISTXlAxNiE2_2An-26" value="" style="rounded=0;whiteSpace=wrap;html=1;container=0;" vertex="1" parent="D249ZISTXlAxNiE2_2An-1">
          <mxGeometry x="80" y="200" width="40" height="40" as="geometry" />
        </mxCell>
        <mxCell id="D249ZISTXlAxNiE2_2An-27" value="" style="rounded=0;whiteSpace=wrap;html=1;container=0;" vertex="1" parent="D249ZISTXlAxNiE2_2An-1">
          <mxGeometry x="120" y="40" width="40" height="40" as="geometry" />
        </mxCell>
        <mxCell id="D249ZISTXlAxNiE2_2An-28" value="" style="rounded=0;whiteSpace=wrap;html=1;container=0;" vertex="1" parent="D249ZISTXlAxNiE2_2An-1">
          <mxGeometry x="120" y="80" width="40" height="40" as="geometry" />
        </mxCell>
        <mxCell id="D249ZISTXlAxNiE2_2An-29" value="" style="rounded=0;whiteSpace=wrap;html=1;container=0;" vertex="1" parent="D249ZISTXlAxNiE2_2An-1">
          <mxGeometry x="120" y="120" width="40" height="40" as="geometry" />
        </mxCell>
        <mxCell id="D249ZISTXlAxNiE2_2An-30" value="" style="rounded=0;whiteSpace=wrap;html=1;container=0;" vertex="1" parent="D249ZISTXlAxNiE2_2An-1">
          <mxGeometry x="120" y="160" width="40" height="40" as="geometry" />
        </mxCell>
        <mxCell id="D249ZISTXlAxNiE2_2An-31" value="" style="rounded=0;whiteSpace=wrap;html=1;container=0;" vertex="1" parent="D249ZISTXlAxNiE2_2An-1">
          <mxGeometry x="120" y="200" width="40" height="40" as="geometry" />
        </mxCell>
        <mxCell id="D249ZISTXlAxNiE2_2An-32" value="" style="rounded=0;whiteSpace=wrap;html=1;container=0;fillColor=#f8cecc;strokeColor=#b85450;" vertex="1" parent="D249ZISTXlAxNiE2_2An-1">
          <mxGeometry x="40" y="40" width="40" height="40" as="geometry" />
        </mxCell>
        <mxCell id="D249ZISTXlAxNiE2_2An-33" value="" style="rounded=0;whiteSpace=wrap;html=1;container=0;" vertex="1" parent="D249ZISTXlAxNiE2_2An-1">
          <mxGeometry x="40" y="80" width="40" height="40" as="geometry" />
        </mxCell>
        <mxCell id="D249ZISTXlAxNiE2_2An-34" value="" style="rounded=0;whiteSpace=wrap;html=1;container=0;" vertex="1" parent="D249ZISTXlAxNiE2_2An-1">
          <mxGeometry x="40" y="120" width="40" height="40" as="geometry" />
        </mxCell>
        <mxCell id="D249ZISTXlAxNiE2_2An-35" value="" style="rounded=0;whiteSpace=wrap;html=1;container=0;" vertex="1" parent="D249ZISTXlAxNiE2_2An-1">
          <mxGeometry x="40" y="160" width="40" height="40" as="geometry" />
        </mxCell>
        <mxCell id="D249ZISTXlAxNiE2_2An-36" value="" style="rounded=0;whiteSpace=wrap;html=1;container=0;" vertex="1" parent="D249ZISTXlAxNiE2_2An-1">
          <mxGeometry x="40" y="200" width="40" height="40" as="geometry" />
        </mxCell>
        <mxCell id="D249ZISTXlAxNiE2_2An-37" value="&lt;pre&gt;&lt;b&gt;&lt;font style=&quot;font-size: 15px;&quot;&gt;1&lt;/font&gt;&lt;/b&gt;&lt;/pre&gt;" style="text;html=1;strokeColor=none;fillColor=none;align=center;verticalAlign=middle;whiteSpace=wrap;rounded=0;container=0;" vertex="1" parent="D249ZISTXlAxNiE2_2An-1">
          <mxGeometry x="80" width="40" height="40" as="geometry" />
        </mxCell>
        <mxCell id="D249ZISTXlAxNiE2_2An-38" value="&lt;b&gt;&lt;font style=&quot;font-size: 15px;&quot;&gt;2&lt;/font&gt;&lt;/b&gt;" style="text;html=1;strokeColor=none;fillColor=none;align=center;verticalAlign=middle;whiteSpace=wrap;rounded=0;container=0;" vertex="1" parent="D249ZISTXlAxNiE2_2An-1">
          <mxGeometry x="120" width="40" height="40" as="geometry" />
        </mxCell>
        <mxCell id="D249ZISTXlAxNiE2_2An-39" value="&lt;font size=&quot;1&quot;&gt;&lt;b style=&quot;font-size: 15px;&quot;&gt;3&lt;/b&gt;&lt;/font&gt;" style="text;html=1;strokeColor=none;fillColor=none;align=center;verticalAlign=middle;whiteSpace=wrap;rounded=0;container=0;" vertex="1" parent="D249ZISTXlAxNiE2_2An-1">
          <mxGeometry x="160" width="40" height="40" as="geometry" />
        </mxCell>
        <mxCell id="D249ZISTXlAxNiE2_2An-40" value="&lt;b style=&quot;font-size: 15px;&quot;&gt;4&lt;/b&gt;" style="text;html=1;strokeColor=none;fillColor=none;align=center;verticalAlign=middle;whiteSpace=wrap;rounded=0;container=0;" vertex="1" parent="D249ZISTXlAxNiE2_2An-1">
          <mxGeometry x="200" width="40" height="40" as="geometry" />
        </mxCell>
        <mxCell id="D249ZISTXlAxNiE2_2An-41" value="&lt;font size=&quot;1&quot;&gt;&lt;b style=&quot;font-size: 15px;&quot;&gt;5&lt;/b&gt;&lt;/font&gt;" style="text;html=1;strokeColor=none;fillColor=none;align=center;verticalAlign=middle;whiteSpace=wrap;rounded=0;container=0;" vertex="1" parent="D249ZISTXlAxNiE2_2An-1">
          <mxGeometry x="240" width="40" height="40" as="geometry" />
        </mxCell>
        <mxCell id="D249ZISTXlAxNiE2_2An-42" value="&lt;font size=&quot;1&quot;&gt;&lt;b style=&quot;font-size: 15px;&quot;&gt;6&lt;/b&gt;&lt;/font&gt;" style="text;html=1;strokeColor=none;fillColor=none;align=center;verticalAlign=middle;whiteSpace=wrap;rounded=0;container=0;" vertex="1" parent="D249ZISTXlAxNiE2_2An-1">
          <mxGeometry x="280" width="40" height="40" as="geometry" />
        </mxCell>
        <mxCell id="D249ZISTXlAxNiE2_2An-43" value="&lt;font size=&quot;1&quot;&gt;&lt;b style=&quot;font-size: 15px;&quot;&gt;7&lt;/b&gt;&lt;/font&gt;" style="text;html=1;strokeColor=none;fillColor=none;align=center;verticalAlign=middle;whiteSpace=wrap;rounded=0;container=0;" vertex="1" parent="D249ZISTXlAxNiE2_2An-1">
          <mxGeometry x="320" width="40" height="40" as="geometry" />
        </mxCell>
        <mxCell id="D249ZISTXlAxNiE2_2An-44" value="&lt;pre&gt;&lt;b&gt;&lt;font style=&quot;font-size: 15px;&quot;&gt;1&lt;/font&gt;&lt;/b&gt;&lt;/pre&gt;" style="text;html=1;strokeColor=none;fillColor=none;align=center;verticalAlign=middle;whiteSpace=wrap;rounded=0;container=0;" vertex="1" parent="D249ZISTXlAxNiE2_2An-1">
          <mxGeometry y="80" width="40" height="40" as="geometry" />
        </mxCell>
        <mxCell id="D249ZISTXlAxNiE2_2An-45" value="&lt;b&gt;&lt;font style=&quot;font-size: 15px;&quot;&gt;2&lt;/font&gt;&lt;/b&gt;" style="text;html=1;strokeColor=none;fillColor=none;align=center;verticalAlign=middle;whiteSpace=wrap;rounded=0;container=0;" vertex="1" parent="D249ZISTXlAxNiE2_2An-1">
          <mxGeometry y="120" width="40" height="40" as="geometry" />
        </mxCell>
        <mxCell id="D249ZISTXlAxNiE2_2An-46" value="&lt;font size=&quot;1&quot;&gt;&lt;b style=&quot;font-size: 15px;&quot;&gt;3&lt;/b&gt;&lt;/font&gt;" style="text;html=1;strokeColor=none;fillColor=none;align=center;verticalAlign=middle;whiteSpace=wrap;rounded=0;container=0;" vertex="1" parent="D249ZISTXlAxNiE2_2An-1">
          <mxGeometry y="160" width="40" height="40" as="geometry" />
        </mxCell>
        <mxCell id="D249ZISTXlAxNiE2_2An-47" value="&lt;b style=&quot;font-size: 15px;&quot;&gt;4&lt;/b&gt;" style="text;html=1;strokeColor=none;fillColor=none;align=center;verticalAlign=middle;whiteSpace=wrap;rounded=0;container=0;" vertex="1" parent="D249ZISTXlAxNiE2_2An-1">
          <mxGeometry y="200" width="40" height="40" as="geometry" />
        </mxCell>
        <mxCell id="D249ZISTXlAxNiE2_2An-48" value="&lt;font size=&quot;1&quot;&gt;&lt;b style=&quot;font-size: 15px;&quot;&gt;5&lt;/b&gt;&lt;/font&gt;" style="text;html=1;strokeColor=none;fillColor=none;align=center;verticalAlign=middle;whiteSpace=wrap;rounded=0;container=0;" vertex="1" parent="D249ZISTXlAxNiE2_2An-1">
          <mxGeometry y="240" width="40" height="40" as="geometry" />
        </mxCell>
        <mxCell id="D249ZISTXlAxNiE2_2An-49" value="" style="rounded=0;whiteSpace=wrap;html=1;container=0;" vertex="1" parent="D249ZISTXlAxNiE2_2An-1">
          <mxGeometry x="320" y="40" width="40" height="40" as="geometry" />
        </mxCell>
        <mxCell id="D249ZISTXlAxNiE2_2An-50" value="" style="rounded=0;whiteSpace=wrap;html=1;container=0;" vertex="1" parent="D249ZISTXlAxNiE2_2An-1">
          <mxGeometry x="320" y="80" width="40" height="40" as="geometry" />
        </mxCell>
        <mxCell id="D249ZISTXlAxNiE2_2An-51" value="" style="rounded=0;whiteSpace=wrap;html=1;container=0;" vertex="1" parent="D249ZISTXlAxNiE2_2An-1">
          <mxGeometry x="320" y="120" width="40" height="40" as="geometry" />
        </mxCell>
        <mxCell id="D249ZISTXlAxNiE2_2An-52" value="" style="rounded=0;whiteSpace=wrap;html=1;container=0;" vertex="1" parent="D249ZISTXlAxNiE2_2An-1">
          <mxGeometry x="320" y="160" width="40" height="40" as="geometry" />
        </mxCell>
        <mxCell id="D249ZISTXlAxNiE2_2An-53" value="" style="rounded=0;whiteSpace=wrap;html=1;container=0;" vertex="1" parent="D249ZISTXlAxNiE2_2An-1">
          <mxGeometry x="320" y="200" width="40" height="40" as="geometry" />
        </mxCell>
        <mxCell id="D249ZISTXlAxNiE2_2An-54" value="" style="rounded=0;whiteSpace=wrap;html=1;container=0;" vertex="1" parent="D249ZISTXlAxNiE2_2An-1">
          <mxGeometry x="240" y="240" width="40" height="40" as="geometry" />
        </mxCell>
        <mxCell id="D249ZISTXlAxNiE2_2An-55" value="" style="rounded=0;whiteSpace=wrap;html=1;container=0;" vertex="1" parent="D249ZISTXlAxNiE2_2An-1">
          <mxGeometry x="280" y="240" width="40" height="40" as="geometry" />
        </mxCell>
        <mxCell id="D249ZISTXlAxNiE2_2An-56" value="" style="rounded=0;whiteSpace=wrap;html=1;container=0;" vertex="1" parent="D249ZISTXlAxNiE2_2An-1">
          <mxGeometry x="160" y="240" width="40" height="40" as="geometry" />
        </mxCell>
        <mxCell id="D249ZISTXlAxNiE2_2An-57" value="" style="rounded=0;whiteSpace=wrap;html=1;container=0;" vertex="1" parent="D249ZISTXlAxNiE2_2An-1">
          <mxGeometry x="200" y="240" width="40" height="40" as="geometry" />
        </mxCell>
        <mxCell id="D249ZISTXlAxNiE2_2An-58" value="" style="rounded=0;whiteSpace=wrap;html=1;container=0;fillColor=#dae8fc;strokeColor=#6c8ebf;" vertex="1" parent="D249ZISTXlAxNiE2_2An-1">
          <mxGeometry x="80" y="240" width="40" height="40" as="geometry" />
        </mxCell>
        <mxCell id="D249ZISTXlAxNiE2_2An-59" value="" style="rounded=0;whiteSpace=wrap;html=1;container=0;fillColor=#dae8fc;strokeColor=#6c8ebf;" vertex="1" parent="D249ZISTXlAxNiE2_2An-1">
          <mxGeometry x="120" y="240" width="40" height="40" as="geometry" />
        </mxCell>
        <mxCell id="D249ZISTXlAxNiE2_2An-60" value="" style="rounded=0;whiteSpace=wrap;html=1;container=0;fillColor=#dae8fc;strokeColor=#6c8ebf;" vertex="1" parent="D249ZISTXlAxNiE2_2An-1">
          <mxGeometry x="40" y="240" width="40" height="40" as="geometry" />
        </mxCell>
        <mxCell id="D249ZISTXlAxNiE2_2An-61" value="" style="rounded=0;whiteSpace=wrap;html=1;container=0;" vertex="1" parent="D249ZISTXlAxNiE2_2An-1">
          <mxGeometry x="320" y="240" width="40" height="40" as="geometry" />
        </mxCell>
        <mxCell id="D249ZISTXlAxNiE2_2An-62" value="&lt;pre&gt;&lt;b&gt;&lt;font style=&quot;font-size: 15px;&quot;&gt;0&lt;/font&gt;&lt;/b&gt;&lt;/pre&gt;" style="text;html=1;strokeColor=none;fillColor=none;align=center;verticalAlign=middle;whiteSpace=wrap;rounded=0;container=0;" vertex="1" parent="D249ZISTXlAxNiE2_2An-1">
          <mxGeometry x="40" width="40" height="40" as="geometry" />
        </mxCell>
        <mxCell id="D249ZISTXlAxNiE2_2An-63" value="&lt;pre&gt;&lt;b&gt;&lt;font style=&quot;font-size: 15px;&quot;&gt;0&lt;/font&gt;&lt;/b&gt;&lt;/pre&gt;" style="text;html=1;strokeColor=none;fillColor=none;align=center;verticalAlign=middle;whiteSpace=wrap;rounded=0;container=0;" vertex="1" parent="D249ZISTXlAxNiE2_2An-1">
          <mxGeometry y="40" width="40" height="40" as="geometry" />
        </mxCell>
        <mxCell id="D249ZISTXlAxNiE2_2An-64" value="&lt;pre&gt;&lt;b&gt;ColdRoom&lt;/b&gt;&lt;/pre&gt;" style="text;html=1;strokeColor=none;fillColor=none;align=center;verticalAlign=middle;whiteSpace=wrap;rounded=0;" vertex="1" parent="D249ZISTXlAxNiE2_2An-1">
          <mxGeometry x="210" y="110" width="60" height="30" as="geometry" />
        </mxCell>
        <mxCell id="D249ZISTXlAxNiE2_2An-65" value="&lt;pre&gt;&lt;b&gt;Indoor&lt;/b&gt;&lt;/pre&gt;" style="text;html=1;strokeColor=none;fillColor=none;align=center;verticalAlign=middle;whiteSpace=wrap;rounded=0;" vertex="1" parent="D249ZISTXlAxNiE2_2An-1">
          <mxGeometry x="70" y="245" width="60" height="30" as="geometry" />
        </mxCell>
        <mxCell id="D249ZISTXlAxNiE2_2An-66" value="" style="shape=image;html=1;verticalAlign=top;verticalLabelPosition=bottom;labelBackgroundColor=#ffffff;imageAspect=0;aspect=fixed;image=https://cdn1.iconfinder.com/data/icons/unicons-line-vol-5/24/robot-128.png" vertex="1" parent="D249ZISTXlAxNiE2_2An-1">
          <mxGeometry x="45" y="45" width="30" height="30" as="geometry" />
        </mxCell>
        <mxCell id="D249ZISTXlAxNiE2_2An-67" value="" style="endArrow=classic;html=1;rounded=0;exitX=0.5;exitY=0;exitDx=0;exitDy=0;entryX=0.5;entryY=1;entryDx=0;entryDy=0;fillColor=#f8cecc;strokeColor=#b85450;strokeWidth=2;" edge="1" parent="D249ZISTXlAxNiE2_2An-1" source="D249ZISTXlAxNiE2_2An-33" target="D249ZISTXlAxNiE2_2An-36">
          <mxGeometry width="50" height="50" relative="1" as="geometry">
            <mxPoint x="60" y="180" as="sourcePoint" />
            <mxPoint x="110" y="130" as="targetPoint" />
          </mxGeometry>
        </mxCell>
        <mxCell id="D249ZISTXlAxNiE2_2An-68" value="" style="endArrow=classic;html=1;rounded=0;exitX=0.5;exitY=0;exitDx=0;exitDy=0;entryX=0.5;entryY=0;entryDx=0;entryDy=0;fillColor=#f8cecc;strokeColor=#b85450;strokeWidth=2;" edge="1" parent="D249ZISTXlAxNiE2_2An-1" source="D249ZISTXlAxNiE2_2An-60" target="D249ZISTXlAxNiE2_2An-20">
          <mxGeometry width="50" height="50" relative="1" as="geometry">
            <mxPoint x="70" y="90" as="sourcePoint" />
            <mxPoint x="70" y="250" as="targetPoint" />
            <Array as="points">
              <mxPoint x="60" y="260" />
              <mxPoint x="220" y="260" />
            </Array>
          </mxGeometry>
        </mxCell>
      </root>
    </mxGraphModel>
  </diagram>
</mxfile>
